<?xml version="1.0" standalone="no"?>
<!DOCTYPE svg PUBLIC "-//W3C//DTD SVG 20010904//EN"
 "http://www.w3.org/TR/2001/REC-SVG-20010904/DTD/svg10.dtd">
<svg version="1.0" xmlns="http://www.w3.org/2000/svg"
 width="512.000000pt" height="512.000000pt" viewBox="0 0 512.000000 512.000000"
 preserveAspectRatio="xMidYMid meet">
<metadata>
Created by potrace 1.14, written by Peter Selinger 2001-2017
</metadata>
<g transform="translate(0.000000,512.000000) scale(0.100000,-0.100000)"
fill="#000000" stroke="none">
<path d="M1425 4516 c-16 -8 -151 -136 -300 -285 l-269 -270 -62 60 c-71 68
-111 88 -166 84 -101 -8 -165 -103 -138 -205 9 -32 38 -67 146 -175 91 -91
146 -138 167 -143 40 -11 90 -6 125 12 32 17 690 674 708 708 33 58 7 160 -49
200 -38 27 -120 34 -162 14z"/>
<path d="M2310 4102 c-34 -5 -87 -46 -105 -82 -18 -34 -20 -112 -4 -142 6 -12
21 -31 33 -43 51 -50 13 -49 1155 -49 586 -1 1085 2 1109 5 76 11 129 65 138
142 8 62 -27 126 -85 154 -38 19 -68 20 -1128 19 -598 0 -1099 -2 -1113 -4z"/>
<path d="M1435 3028 c-17 -6 -147 -127 -303 -282 -150 -149 -275 -273 -277
-275 -3 -3 -26 18 -53 46 -64 69 -107 93 -163 93 -51 0 -98 -26 -133 -73 -25
-34 -30 -111 -9 -152 9 -16 68 -83 132 -149 148 -151 201 -177 285 -142 40 17
697 669 721 716 35 67 1 180 -62 209 -38 17 -104 22 -138 9z"/>
<path d="M2311 2607 c-26 -5 -54 -21 -74 -41 -77 -77 -61 -195 34 -251 33 -20
53 -20 1124 -22 644 0 1105 3 1127 8 106 27 151 166 81 249 -57 68 26 63
-1170 64 -594 1 -1100 -3 -1122 -7z"/>
<path d="M1455 1542 c-37 -8 -79 -46 -337 -304 -142 -142 -261 -258 -266 -258
-4 0 -34 27 -67 60 -66 66 -112 86 -174 75 -41 -8 -95 -45 -112 -78 -16 -28
-19 -104 -7 -137 11 -30 252 -275 290 -296 32 -17 95 -18 135 -3 38 14 710
686 723 723 27 77 0 159 -65 198 -32 18 -87 28 -120 20z"/>
<path d="M2290 1109 c-14 -6 -36 -20 -48 -32 -78 -72 -68 -185 21 -251 28 -21
30 -21 1138 -24 1237 -3 1151 -7 1207 66 22 29 27 46 27 91 -1 65 -20 100 -74
137 l-35 24 -1106 -1 c-713 0 -1114 -4 -1130 -10z"/>
</g>
</svg>
